<?xml version="1.0" encoding="UTF-8"?>
<svg version="1.1" xmlns="http://www.w3.org/2000/svg" width="47" height="32">
<path d="M0 0 C3.3 0 6.6 0 10 0 C10.33 0.99 10.66 1.98 11 3 C11.66 2.34 12.32 1.68 13 1 C16.5 0.75 16.5 0.75 20 1 C20.66 1.66 21.32 2.32 22 3 C22.33 2.01 22.66 1.02 23 0 C26.63 0 30.26 0 34 0 C34.495 10.395 34.495 10.395 35 21 C35.66 20.34 36.32 19.68 37 19 C40.4375 18.625 40.4375 18.625 44 19 C46 20.625 46 20.625 47 23 C46.875 26.125 46.875 26.125 46 29 C42.54754176 31.30163882 41.05261287 31.34490322 37 31 C36.34 30.34 35.68 29.68 35 29 C34.505 30.485 34.505 30.485 34 32 C30.37 32 26.74 32 23 32 C22.67 25.07 22.34 18.14 22 11 C21.34 11.66 20.68 12.32 20 13 C16.5 13.25 16.5 13.25 13 13 C12.34 12.34 11.68 11.68 11 11 C10.67 17.93 10.34 24.86 10 32 C6.7 32 3.4 32 0 32 C0 21.44 0 10.88 0 0 Z " fill="#FFFFFF" transform="translate(0,0)"/>
</svg>
